<svg viewBox="130 210 170 250" fill="none" xmlns="http://www.w3.org/2000/svg">
  <path 
    d="M 237.78 434.89 C223.08,442.65 210.71,448.99 210.28,448.97 C209.85,448.96 204.41,446.21 198.18,442.87 C187.94,437.36 187.04,436.66 188.73,435.47 C189.76,434.75 206.78,425.74 226.55,415.45 C246.32,405.16 263.51,396.12 264.75,395.35 L 267.00 393.95 L 266.96 333.23 L 266.91 272.50 L 238.05 258.74 L 209.19 244.98 L 185.84 256.89 L 162.50 268.80 L 162.24 345.40 C162.06,401.16 161.68,422.00 160.87,422.00 C160.25,422.00 155.30,419.64 149.87,416.75 L 140.00 411.50 L 140.25 333.16 L 140.50 254.81 L 174.00 237.90 C196.28,226.65 208.20,221.15 209.60,221.47 C211.53,221.92 222.88,227.18 272.75,250.72 L 291.00 259.34 L 291.00 406.58 L 277.75 413.68 C270.46,417.59 252.48,427.13 237.78,434.89 Z" 
    fill="black"
  />
</svg>
