<svg xmlns="http://www.w3.org/2000/svg" width="1024" height="682" viewBox="0 0 1024 682">
<g>
<path d="M 237.78 434.89 C223.08,442.65 210.71,448.99 210.28,448.97 C209.85,448.96 204.41,446.21 198.18,442.87 C187.94,437.36 187.04,436.66 188.73,435.47 C189.76,434.75 206.78,425.74 226.55,415.45 C246.32,405.16 263.51,396.12 264.75,395.35 L 267.00 393.95 L 266.96 333.23 L 266.91 272.50 L 238.05 258.74 L 209.19 244.98 L 185.84 256.89 L 162.50 268.80 L 162.24 345.40 C162.06,401.16 161.68,422.00 160.87,422.00 C160.25,422.00 155.30,419.64 149.87,416.75 L 140.00 411.50 L 140.25 333.16 L 140.50 254.81 L 174.00 237.90 C196.28,226.65 208.20,221.15 209.60,221.47 C211.53,221.92 222.88,227.18 272.75,250.72 L 291.00 259.34 L 291.00 406.58 L 277.75 413.68 C270.46,417.59 252.48,427.13 237.78,434.89 ZM 891.00 289.00 L 891.00 416.00 L 868.00 416.00 L 868.00 371.97 L 862.88 375.49 C855.44,380.61 848.61,382.31 837.47,381.82 C829.28,381.46 827.38,381.00 820.79,377.74 C806.40,370.63 797.00,356.75 795.12,339.87 C793.71,327.26 795.60,317.90 801.55,308.00 C805.84,300.87 810.00,296.99 818.00,292.67 C833.32,284.38 852.08,285.53 865.75,295.59 C867.99,297.23 868.00,297.22 868.00,293.12 L 868.00 289.00 ZM 631.00 394.50 L 631.00 416.00 L 609.00 416.00 L 609.00 289.00 L 631.00 289.00 L 631.00 293.50 C631.00,295.98 631.27,298.00 631.59,298.00 C631.92,298.00 633.99,296.45 636.21,294.55 C641.22,290.26 647.45,288.04 656.50,287.31 C683.68,285.13 705.00,306.14 705.00,335.10 C705.00,353.31 694.78,370.23 679.36,377.52 C667.65,383.06 653.20,383.46 642.26,378.54 C638.84,377.00 635.52,375.12 634.89,374.37 C634.27,373.62 633.14,373.00 632.38,373.00 C631.25,373.00 631.00,376.90 631.00,394.50 ZM 472.17 349.17 L 471.84 379.00 L 450.00 379.00 L 450.00 289.00 L 472.00 289.00 L 472.00 297.10 L 475.31 294.58 C482.18,289.34 487.77,287.61 498.00,287.57 C509.12,287.53 514.15,289.33 521.27,295.89 L 525.68 299.96 L 528.09 297.40 C531.99,293.25 543.63,288.19 551.03,287.44 C563.15,286.20 575.51,290.40 582.49,298.12 C586.83,302.93 589.82,312.47 590.00,322.13 C590.08,326.18 590.11,340.64 590.07,354.25 L 590.00 379.00 L 568.50 378.99 L 568.42 348.25 C568.33,314.12 568.12,312.93 561.70,308.90 C559.08,307.26 557.13,306.95 550.92,307.20 C544.42,307.46 542.82,307.90 539.67,310.30 C532.61,315.69 532.54,316.04 532.17,349.25 L 531.84 379.00 L 510.00 379.00 L 510.00 352.64 C510.00,325.13 509.23,317.19 506.14,313.00 C499.15,303.53 482.18,304.74 475.25,315.19 L 472.50 319.35 ZM 407.74 379.60 C389.67,386.04 366.92,380.44 355.00,366.63 C338.96,348.05 340.06,316.73 357.34,299.71 C363.37,293.78 369.88,290.42 379.05,288.49 C396.62,284.79 413.29,288.75 423.81,299.10 C432.40,307.56 436.10,317.26 436.35,332.00 L 436.50 340.50 L 400.86 340.76 L 365.22 341.03 L 365.95 344.26 C367.02,349.00 369.42,353.19 373.18,356.90 C383.59,367.17 398.19,367.05 409.74,356.61 C411.94,354.63 414.04,353.00 414.41,353.00 C415.90,353.00 431.00,360.34 431.00,361.06 C431.00,361.49 428.74,364.32 425.97,367.34 C420.67,373.14 414.79,377.10 407.74,379.60 ZM 740.01 252.00 L 739.50 378.50 L 728.75 378.78 L 718.00 379.07 L 718.00 252.00 ZM 834.71 361.26 C851.66,367.50 869.00,353.71 869.00,334.00 C869.00,313.57 849.96,300.22 832.46,308.37 C822.94,312.80 817.71,321.83 817.59,334.00 C817.53,340.24 817.98,342.44 820.27,347.12 C823.76,354.26 828.63,359.02 834.71,361.26 ZM 647.84 361.60 C660.45,366.11 675.25,358.79 679.53,345.92 C683.29,334.58 681.04,320.92 674.20,313.62 C670.05,309.20 662.43,306.02 655.95,306.01 C641.47,305.98 630.94,318.14 631.04,334.76 C631.13,347.77 637.47,357.90 647.84,361.60 ZM 782.00 289.00 L 782.00 379.00 L 759.00 379.00 L 759.00 289.00 ZM 366.01 323.75 C366.00,324.72 371.57,325.00 390.57,325.00 L 415.13 325.00 L 414.44 322.75 C412.19,315.48 406.11,308.11 400.68,306.06 C399.14,305.48 394.51,305.00 390.40,305.00 C382.39,305.00 377.14,306.61 373.13,310.30 C370.74,312.50 366.03,321.39 366.01,323.75 ZM 779.89 272.48 C776.58,275.47 775.28,276.00 771.25,276.00 C759.92,275.99 753.73,265.45 759.69,256.35 C761.45,253.66 766.87,251.00 770.59,251.00 C775.29,251.00 781.64,254.72 783.45,258.54 C785.84,263.57 784.67,268.17 779.89,272.48 Z" fill="rgb(21,21,23)"/>
<path d="M 0.00 341.00 L 0.00 0.00 L 512.00 0.00 L 1024.00 0.00 L 1024.00 341.00 L 1024.00 682.00 L 512.00 682.00 L 0.00 682.00 L 0.00 341.00 ZM 237.78 434.89 C252.48,427.13 270.46,417.59 277.75,413.68 L 291.00 406.58 L 291.00 332.96 L 291.00 259.34 L 272.75 250.72 C222.88,227.18 211.53,221.92 209.60,221.47 C208.20,221.15 196.28,226.65 174.00,237.90 L 140.50 254.81 L 140.25 333.16 L 140.00 411.50 L 149.87 416.75 C155.30,419.64 160.25,422.00 160.87,422.00 C161.68,422.00 162.06,401.16 162.24,345.40 L 162.50 268.80 L 185.84 256.89 L 209.19 244.98 L 238.05 258.74 L 266.91 272.50 L 266.96 333.23 L 267.00 393.95 L 264.75 395.35 C263.51,396.12 246.32,405.16 226.55,415.45 C206.78,425.74 189.76,434.75 188.73,435.47 C187.04,436.66 187.94,437.36 198.18,442.87 C204.41,446.21 209.85,448.96 210.28,448.97 C210.71,448.99 223.08,442.65 237.78,434.89 ZM 631.00 394.50 C631.00,376.90 631.25,373.00 632.38,373.00 C633.14,373.00 634.27,373.62 634.89,374.37 C635.52,375.12 638.84,377.00 642.26,378.54 C653.20,383.46 667.65,383.06 679.36,377.52 C694.78,370.23 705.00,353.31 705.00,335.10 C705.00,306.14 683.68,285.13 656.50,287.31 C647.45,288.04 641.22,290.26 636.21,294.55 C633.99,296.45 631.92,298.00 631.59,298.00 C631.27,298.00 631.00,295.98 631.00,293.50 L 631.00 289.00 L 620.00 289.00 L 609.00 289.00 L 609.00 352.50 L 609.00 416.00 L 620.00 416.00 L 631.00 416.00 L 631.00 394.50 ZM 891.00 352.50 L 891.00 289.00 L 879.50 289.00 L 868.00 289.00 L 868.00 293.12 C868.00,297.22 867.99,297.23 865.75,295.59 C852.08,285.53 833.32,284.38 818.00,292.67 C810.00,296.99 805.84,300.87 801.55,308.00 C795.60,317.90 793.71,327.26 795.12,339.87 C797.00,356.75 806.40,370.63 820.79,377.74 C827.38,381.00 829.28,381.46 837.47,381.82 C848.61,382.31 855.44,380.61 862.88,375.49 L 868.00 371.97 L 868.00 393.98 L 868.00 416.00 L 879.50 416.00 L 891.00 416.00 L 891.00 352.50 ZM 407.74 379.60 C414.79,377.10 420.67,373.14 425.97,367.34 C428.74,364.32 431.00,361.49 431.00,361.06 C431.00,360.34 415.90,353.00 414.41,353.00 C414.04,353.00 411.94,354.63 409.74,356.61 C398.19,367.05 383.59,367.17 373.18,356.90 C369.42,353.19 367.02,349.00 365.95,344.26 L 365.22 341.03 L 400.86 340.76 L 436.50 340.50 L 436.35 332.00 C436.10,317.26 432.40,307.56 423.81,299.10 C413.29,288.75 396.62,284.79 379.05,288.49 C369.88,290.42 363.37,293.78 357.34,299.71 C340.06,316.73 338.96,348.05 355.00,366.63 C366.92,380.44 389.67,386.04 407.74,379.60 ZM 472.17 349.17 L 472.50 319.35 L 475.25 315.19 C482.18,304.74 499.15,303.53 506.14,313.00 C509.23,317.19 510.00,325.13 510.00,352.64 L 510.00 379.00 L 520.92 379.00 L 531.84 379.00 L 532.17 349.25 C532.54,316.04 532.61,315.69 539.67,310.30 C542.82,307.90 544.42,307.46 550.92,307.20 C557.13,306.95 559.08,307.26 561.70,308.90 C568.12,312.93 568.33,314.12 568.42,348.25 L 568.50 378.99 L 579.25 379.00 L 590.00 379.00 L 590.07 354.25 C590.11,340.64 590.08,326.18 590.00,322.13 C589.82,312.47 586.83,302.93 582.49,298.12 C575.51,290.40 563.15,286.20 551.03,287.44 C543.63,288.19 531.99,293.25 528.09,297.40 L 525.68 299.96 L 521.27 295.89 C514.15,289.33 509.12,287.53 498.00,287.57 C487.77,287.61 482.18,289.34 475.31,294.58 L 472.00 297.10 L 472.00 293.05 L 472.00 289.00 L 461.00 289.00 L 450.00 289.00 L 450.00 334.00 L 450.00 379.00 L 460.92 379.00 L 471.84 379.00 L 472.17 349.17 ZM 739.76 315.25 L 740.01 252.00 L 729.01 252.00 L 718.00 252.00 L 718.00 315.53 L 718.00 379.07 L 728.75 378.78 L 739.50 378.50 L 739.76 315.25 ZM 782.00 334.00 L 782.00 289.00 L 770.50 289.00 L 759.00 289.00 L 759.00 334.00 L 759.00 379.00 L 770.50 379.00 L 782.00 379.00 L 782.00 334.00 ZM 779.89 272.48 C784.67,268.17 785.84,263.57 783.45,258.54 C781.64,254.72 775.29,251.00 770.59,251.00 C766.87,251.00 761.45,253.66 759.69,256.35 C753.73,265.45 759.92,275.99 771.25,276.00 C775.28,276.00 776.58,275.47 779.89,272.48 ZM 647.84 361.60 C637.47,357.90 631.13,347.77 631.04,334.76 C630.94,318.14 641.47,305.98 655.95,306.01 C662.43,306.02 670.05,309.20 674.20,313.62 C681.04,320.92 683.29,334.58 679.53,345.92 C675.25,358.79 660.45,366.11 647.84,361.60 ZM 834.71 361.26 C828.63,359.02 823.76,354.26 820.27,347.12 C817.98,342.44 817.53,340.24 817.59,334.00 C817.71,321.83 822.94,312.80 832.46,308.37 C849.96,300.22 869.00,313.57 869.00,334.00 C869.00,353.71 851.66,367.50 834.71,361.26 ZM 366.01 323.75 C366.03,321.39 370.74,312.50 373.13,310.30 C377.14,306.61 382.39,305.00 390.40,305.00 C394.51,305.00 399.14,305.48 400.68,306.06 C406.11,308.11 412.19,315.48 414.44,322.75 L 415.13 325.00 L 390.57 325.00 C371.57,325.00 366.00,324.72 366.01,323.75 Z" fill="rgb(254,254,254)"/>
</g>
</svg>